HIERARCHY
ROOT bottle4_body
{
	OFFSET 0.000000 0.000000 0.000000
	CHANNELS 6 Xposition Yposition Zposition Yrotation Xrotation Zrotation
	End Site
	{
		OFFSET 0.000000 0.000000 0.000000
	}
}
MOTION
Frames: 154
Frame Time: 0.008333334
1.768433 5.300788 3.754796 162.444700 50.547340 96.872220 
1.771123 5.310512 3.753480 161.558600 50.868030 95.283490 
1.773061 5.320793 3.751194 159.957100 51.046700 93.291430 
1.774417 5.332517 3.748428 158.420800 51.281670 91.580570 
1.775499 5.345039 3.745532 156.646000 51.439690 89.423870 
1.775204 5.358072 3.741812 154.754300 51.697520 86.830800 
1.774294 5.371139 3.736376 153.073900 51.944060 84.617500 
1.772667 5.384260 3.730285 151.280000 52.222710 82.100850 
1.770420 5.397665 3.723047 149.044300 52.406910 79.152400 
1.767684 5.409894 3.715585 147.410900 52.655320 76.578440 
1.763645 5.422430 3.708287 145.328100 52.709890 73.804340 
1.759324 5.435057 3.700878 143.245000 52.741550 70.825980 
1.754686 5.448112 3.693962 141.148900 52.233370 68.141180 
1.749886 5.461312 3.686737 138.825000 51.401260 64.935770 
1.738933 5.475516 3.685137 136.374900 51.314770 62.056850 
1.728320 5.489777 3.681706 134.172600 50.715560 59.225510 
1.715057 5.502064 3.678594 131.768500 49.893190 56.347590 
1.700795 5.514123 3.674962 129.438100 49.077090 53.400680 
1.684813 5.525707 3.670214 127.207100 48.408440 50.496680 
1.668720 5.536352 3.664607 125.096400 47.815560 47.581040 
1.652291 5.545561 3.657000 123.277900 47.418590 45.088010 
1.635770 5.553648 3.648430 121.206700 46.718720 42.172270 
1.619142 5.560811 3.639358 119.400000 46.027880 39.393800 
1.601097 5.568572 3.629660 117.512500 45.204410 36.714170 
1.583412 5.575274 3.619668 115.978300 44.416620 34.134380 
1.563864 5.580680 3.610315 114.361200 43.339030 31.585630 
1.543517 5.584630 3.600858 113.051700 42.186970 29.357900 
1.522285 5.585739 3.591176 111.842100 41.086570 27.401440 
1.501761 5.586053 3.581255 110.528200 39.947450 25.277870 
1.481068 5.583390 3.570311 109.450800 38.722660 23.482550 
1.461219 5.579154 3.559909 108.632300 37.674300 21.781330 
1.442428 5.573598 3.548839 107.921500 36.574220 20.180300 
1.424711 5.566236 3.537735 107.380500 35.457290 18.889770 
1.407432 5.557823 3.527428 107.024900 34.625870 17.736520 
1.390676 5.549655 3.516531 106.776900 33.626670 16.524870 
1.374138 5.540897 3.505658 106.608300 32.694770 15.479720 
1.357641 5.531639 3.495136 106.584100 31.703560 14.644390 
1.341009 5.521220 3.484510 106.553200 30.719840 13.698300 
1.324571 5.510389 3.474123 106.523400 29.767890 12.702820 
1.309131 5.498595 3.463137 106.466800 28.802790 11.748190 
1.293447 5.485907 3.452620 106.422500 27.809480 10.720350 
1.278316 5.471677 3.442743 106.232500 26.954140 9.741861 
1.263730 5.456875 3.433030 106.074700 26.238970 8.745426 
1.251134 5.441350 3.422688 105.939600 25.506730 7.776241 
1.239614 5.424630 3.412737 105.755300 24.902630 6.786261 
1.229356 5.406481 3.402391 105.717100 24.256380 5.853170 
1.220256 5.388870 3.391471 105.638800 23.891630 4.912273 
1.212253 5.370407 3.380894 105.568700 23.301360 3.938939 
1.205035 5.352141 3.370368 105.563900 22.975200 2.966963 
1.198404 5.333067 3.360950 105.657200 22.449970 2.223962 
1.192339 5.314258 3.351851 105.792400 22.027750 1.680856 
1.186980 5.294930 3.343603 106.149400 21.632540 1.233045 
1.182436 5.276136 3.336270 106.543400 21.180870 0.847482 
1.178309 5.257571 3.329919 107.000800 20.695000 0.623247 
1.175014 5.238696 3.323926 107.645300 20.238500 0.416711 
1.171820 5.220540 3.317818 108.270000 19.890980 0.296055 
1.170278 5.201922 3.311509 108.947600 19.336980 0.082439 
1.168398 5.183058 3.304968 109.560800 18.977820 -0.126404 
1.167591 5.163346 3.299887 110.013300 18.704990 -0.449341 
1.168028 5.143675 3.295250 110.428800 18.361540 -0.826202 
1.169241 5.124225 3.292083 110.649800 18.115550 -1.144165 
1.171735 5.105025 3.289585 110.885700 17.998030 -1.452820 
1.174906 5.086295 3.288031 111.198200 17.834560 -1.624664 
1.178633 5.068279 3.286508 111.553700 17.613040 -1.763794 
1.182717 5.051282 3.285319 111.985800 17.511670 -1.968353 
1.186677 5.033806 3.284066 112.460700 17.326210 -2.015228 
1.190894 5.015905 3.283558 112.967700 17.021100 -2.078949 
1.195573 4.997826 3.283160 113.587300 16.660280 -2.060669 
1.200963 4.979427 3.283350 114.032000 16.438280 -2.117920 
1.206994 4.960919 3.283546 114.504300 16.211920 -2.214447 
1.214051 4.941330 3.284148 114.844800 15.967630 -2.348297 
1.222057 4.921559 3.285318 115.121400 15.642800 -2.513153 
1.230730 4.901091 3.286295 115.319800 15.424670 -2.585907 
1.240087 4.881144 3.288003 115.479000 15.230330 -2.693542 
1.249772 4.860834 3.289962 115.728700 15.073260 -2.703003 
1.259817 4.841409 3.291254 115.950400 14.980530 -2.691162 
1.270275 4.821494 3.292172 116.308900 14.892540 -2.657074 
1.280216 4.802809 3.292424 116.768700 14.793150 -2.610504 
1.290121 4.783291 3.292514 117.224600 14.678530 -2.509491 
1.299864 4.764102 3.292483 117.633100 14.592340 -2.385925 
1.309734 4.744944 3.292856 118.080200 14.497830 -2.364807 
1.319725 4.726441 3.292945 118.430100 14.363930 -2.230316 
1.329817 4.708074 3.292875 118.703600 14.316690 -2.166931 
1.340027 4.690332 3.293031 119.010300 14.179210 -2.142395 
1.350290 4.673330 3.293030 119.292000 14.140760 -1.941101 
1.360422 4.656793 3.292401 119.651100 14.036590 -1.849243 
1.369212 4.640404 3.292229 119.987100 13.904750 -1.631073 
1.378273 4.625289 3.291185 120.366000 13.884300 -1.450653 
1.387114 4.610375 3.289973 120.756000 13.730790 -1.224945 
1.395127 4.595752 3.288515 121.150200 13.603670 -1.033691 
1.402601 4.581550 3.287455 121.547700 13.510690 -0.939636 
1.409022 4.567889 3.285421 121.911900 13.235020 -0.774506 
1.415095 4.554661 3.283484 122.176500 13.114520 -0.699860 
1.420865 4.541770 3.281019 122.541600 12.952470 -0.622681 
1.426219 4.529158 3.279122 122.825700 12.682420 -0.537720 
1.430496 4.517499 3.277092 123.065100 12.653710 -0.466492 
1.434743 4.506977 3.275696 123.294300 12.547950 -0.452759 
1.438299 4.496803 3.274471 123.537900 12.436240 -0.379974 
1.441263 4.486830 3.273642 123.765300 12.231990 -0.248169 
1.443847 4.477939 3.272796 123.958700 12.095620 -0.226563 
1.446101 4.468983 3.272319 124.115200 11.941700 -0.186920 
1.448339 4.460726 3.271439 124.244100 11.842650 -0.226593 
1.450307 4.452672 3.271026 124.338900 11.844840 -0.285584 
1.452146 4.444236 3.270530 124.345300 11.717580 -0.279511 
1.454231 4.436080 3.269910 124.409600 11.654540 -0.308319 
1.454920 4.434510 3.271891 124.442300 11.557110 -0.368256 
1.451704 4.434401 3.275224 124.524800 11.074780 -0.303558 
1.449642 4.432994 3.277292 124.648600 10.859510 -0.367249 
1.449419 4.430596 3.278205 124.817900 10.599560 -0.380524 
1.449580 4.427475 3.279799 124.966400 10.433120 -0.374298 
1.449660 4.426551 3.281962 125.025700 10.233390 -0.275055 
1.449212 4.425208 3.284656 125.072500 10.033180 -0.255859 
1.449528 4.424085 3.286849 125.143800 9.874771 -0.151764 
1.449991 4.422380 3.288660 125.129300 9.645094 -0.023438 
1.450795 4.421186 3.290655 125.149600 9.465780 0.024645 
1.452214 4.419904 3.292161 125.144400 9.317514 0.095278 
1.453856 4.418771 3.293391 125.078600 9.222778 0.100498 
1.455861 4.418116 3.294239 125.038600 9.097808 0.190119 
1.458108 4.417208 3.295217 125.057000 9.036924 0.323940 
1.460303 4.416570 3.296070 125.044400 8.970205 0.410077 
1.462980 4.415055 3.297125 125.117400 8.801276 0.535995 
1.464906 4.414146 3.298017 125.203600 8.723587 0.710116 
1.466354 4.412592 3.298870 125.259900 8.581544 0.846681 
1.467738 4.411065 3.300163 125.349300 8.446230 0.997743 
1.468874 4.408768 3.301978 125.427600 8.182254 1.220851 
1.469748 4.405819 3.304319 125.424900 8.011051 1.504006 
1.470865 4.402872 3.307133 125.448000 7.724380 1.693807 
1.470921 4.401475 3.308428 125.456700 7.317767 1.721582 
1.468879 4.399245 3.307729 125.326500 6.973841 1.554962 
1.466600 4.395929 3.304479 125.135500 6.628730 1.259900 
1.464230 4.393188 3.299389 124.946600 6.333458 1.055124 
1.460739 4.390635 3.295737 124.698400 6.065164 0.788718 
1.457518 4.387467 3.292872 124.553500 5.554461 0.487503 
1.456987 4.386218 3.290792 124.403600 5.227063 0.447397 
1.459932 4.385321 3.287084 124.255700 5.162752 0.504124 
1.463873 4.384895 3.283046 124.193900 5.416339 0.471740 
1.466310 4.384421 3.280271 123.991700 5.330416 0.521785 
1.468892 4.384654 3.277263 123.897800 5.312774 0.551593 
1.473806 4.384505 3.273698 123.703800 5.404283 0.454073 
1.478516 4.384180 3.270521 123.504500 5.365041 0.459810 
1.483369 4.383839 3.267308 123.212600 5.405830 0.453844 
1.488783 4.383238 3.263504 122.814800 5.363489 0.421662 
1.495017 4.383174 3.259202 122.420700 5.427156 0.424666 
1.502140 4.382833 3.254524 121.962900 5.380238 0.363379 
1.510210 4.382341 3.249701 121.511600 5.351251 0.308966 
1.517721 4.381810 3.244564 120.943600 5.311739 0.354724 
1.526454 4.381316 3.239221 120.408800 5.364970 0.330594 
1.535797 4.380868 3.233591 119.849600 5.312959 0.306718 
1.545018 4.380356 3.227579 119.351400 5.248538 0.278680 
1.554699 4.379663 3.220503 118.709800 5.274172 0.279353 
1.564271 4.378788 3.214152 118.106000 5.230020 0.217817 
1.574966 4.378561 3.206048 117.555900 5.197630 0.200732 
1.585115 4.377751 3.198354 116.920200 5.252426 0.053755 
1.595294 4.376775 3.191350 116.289400 5.129587 0.126612 
